<svg width="213" height="27" viewBox="0 0 213 27" fill="none" xmlns="http://www.w3.org/2000/svg">
<path d="M98.304 8.85254L96.8359 9.7031V11.1207L103.426 16.1926V11.8453L98.304 8.85254Z" fill="#1AB362"/>
<path d="M93.1797 16.8854C93.1797 18.4606 94.023 19.9412 95.3974 20.7602L98.3335 22.4614L99.8327 21.5793V20.2877L93.1797 15.2158V16.8854Z" fill="#EE2C44"/>
<path d="M95.7097 10.3643L93.1484 11.8449V11.9709V11.9709V13.8295L100.582 19.752L100.895 20.9491L101.207 20.76C102.363 20.067 103.175 18.9014 103.362 17.5783L98.8332 13.8925L95.7097 10.3643Z" fill="#FECF08"/>
<path d="M9.62033 13.4829C7.74624 12.9789 6.2782 12.6008 6.2782 11.3722C6.2782 10.5847 6.87167 9.73411 8.49588 9.73411C9.74527 9.73411 10.7448 10.3012 11.4632 11.4352L15.961 8.97806C14.3056 6.48937 11.6818 5.13477 8.49588 5.13477C4.65399 5.13477 0.780871 7.11942 0.780871 11.5613C0.780871 15.8456 4.59152 16.9167 7.65254 17.7672C9.52663 18.3028 11.0259 18.7123 11.0259 19.9094C11.0259 20.5709 10.6823 21.6735 8.30847 21.6735C6.52808 21.6735 5.21622 20.886 4.52905 19.4053L0 22.02C1.56174 24.8868 4.34164 26.3674 8.3397 26.3674C12.3065 26.3674 16.5232 24.6662 16.5232 19.9409C16.5232 15.31 12.6813 14.302 9.62033 13.4829Z" fill="white"/>
<path fill-rule="evenodd" clip-rule="evenodd" d="M29.4243 21.6735C31.0173 21.6735 32.5165 21.138 33.516 20.1929L37.7015 22.6501C35.765 25.1073 32.9538 26.3674 29.3306 26.3674C22.8337 26.3674 18.2734 21.9885 18.2734 15.7511C18.2734 9.6081 22.74 5.13477 28.8933 5.13477C34.6717 5.13477 39.0134 9.70261 38.9821 15.7511C38.9821 16.4441 38.9509 17.1372 38.826 17.7987H23.7708L23.9894 18.4288C24.7703 20.5709 26.5819 21.6735 29.4243 21.6735ZM28.8612 9.79699C26.2687 9.79699 24.5195 11.0886 23.8636 13.4513L23.7074 14.0498H33.89L33.7338 13.4513C33.0779 11.1201 31.3287 9.79699 28.8612 9.79699Z" fill="white"/>
<path d="M52.0969 9.98613C54.5957 9.98613 56.1886 11.6873 56.1886 14.2705V25.7688H61.4986V13.3569C61.4986 9.26158 59.2497 5.13477 54.1896 5.13477C51.7221 5.13477 49.6918 5.98533 48.5986 7.49744L47.7552 8.66303V5.70181H42.4453V25.7688H47.7552V14.7745C47.7552 11.7188 49.3482 9.98613 52.0969 9.98613Z" fill="white"/>
<path d="M75.3391 9.98613C77.8379 9.98613 79.4308 11.6873 79.4308 14.2705V25.7688H84.7408V13.3569C84.7408 9.26158 82.4918 5.13477 77.4318 5.13477C74.9642 5.13477 72.934 5.98533 71.8408 7.49744L70.9974 8.66303V5.70181H65.6875V25.7688H70.9974V14.7745C70.9974 11.7188 72.5904 9.98613 75.3391 9.98613Z" fill="white"/>
<path d="M124.782 5.7334L120.096 20.067L115.442 5.7334H109.539L116.91 25.7689H123.314L130.685 5.7334H124.782Z" fill="white"/>
<path fill-rule="evenodd" clip-rule="evenodd" d="M146.516 23.9729C145.142 25.5481 143.174 26.3671 140.675 26.3671C135.365 26.3671 131.211 21.7048 131.18 15.7823C131.18 9.82837 135.365 5.16602 140.675 5.16602C143.174 5.16602 145.142 5.95358 146.516 7.5602L147.328 8.50527V5.73306H152.638V25.8001H147.328V23.0279L146.516 23.9729ZM147.358 15.7507C147.358 12.3799 145.172 10.1432 141.923 10.1432C138.675 10.1432 136.52 12.4114 136.488 15.7507C136.488 19.1214 138.675 21.3581 141.923 21.3581C145.172 21.3581 147.358 19.0899 147.358 15.7507Z" fill="white"/>
<path d="M160.576 24.4143C162.012 25.7374 164.511 26.1785 168.416 25.832V21.0436C166.635 21.1381 165.417 21.0121 164.73 20.3505C164.324 19.9725 164.136 19.437 164.136 18.7439V10.8368H168.416V5.73343H164.136V0L158.827 1.60662V5.73343H155.484V10.8368H158.827V18.7439C158.827 21.5161 159.389 23.3118 160.576 24.4143Z" fill="white"/>
<path fill-rule="evenodd" clip-rule="evenodd" d="M181.534 21.6735C183.127 21.6735 184.626 21.138 185.625 20.1929L189.78 22.6501C187.843 25.1073 185.032 26.3674 181.409 26.3674C174.912 26.3674 170.352 21.9885 170.352 15.7511C170.352 9.6081 174.818 5.13477 180.971 5.13477C186.75 5.13477 191.091 9.70261 191.091 15.7511C191.091 16.4441 191.06 17.1372 190.935 17.7987H175.88L176.099 18.4288C176.88 20.5709 178.691 21.6735 181.534 21.6735ZM180.972 9.79699C178.38 9.79699 176.631 11.0886 175.975 13.4513L175.819 14.0498H186.001L185.845 13.4513C185.189 11.1201 183.44 9.79699 180.972 9.79699Z" fill="white"/>
<path fill-rule="evenodd" clip-rule="evenodd" d="M98.5125 7.65565L104.322 11.0579C104.478 11.1524 104.541 11.2784 104.572 11.4359V16.8858C104.572 18.902 103.51 20.7291 101.792 21.7372L98.575 23.6274C98.4188 23.7219 98.2001 23.7219 98.044 23.6274L94.8268 21.7372C93.1089 20.7291 92.0469 18.8705 92.0469 16.8858V11.4359C92.0469 11.2784 92.1093 11.1209 92.2655 11.0264L98.0752 7.65565C98.2314 7.59265 98.3875 7.59265 98.5125 7.65565ZM99.5104 21.7689C99.6978 21.6429 99.7915 21.4539 99.7915 21.2649V20.6663C99.7915 20.4458 99.6978 20.2568 99.5416 20.1308L93.3884 15.4054C93.2947 15.3109 93.1697 15.3739 93.1697 15.4999V16.886C93.1697 18.4927 94.0131 19.9733 95.3874 20.7608L98.1361 22.3674C98.2298 22.4304 98.3547 22.4304 98.4484 22.3674L99.5104 21.7689ZM103.321 17.8939C103.04 19.091 102.29 20.1306 101.228 20.7606L100.916 20.9496V20.0676C100.916 19.8786 100.822 19.6895 100.666 19.5635L93.4509 14.0506C93.2635 13.9246 93.1697 13.7041 93.1697 13.4521V11.9715V11.8454L95.2937 10.6169C95.4811 10.4908 95.731 10.6484 95.731 10.8689V11.3099C95.731 11.5619 95.8559 11.8139 96.0434 11.9715L103.165 17.4214C103.29 17.5159 103.352 17.7049 103.321 17.8939ZM103.104 15.9725C103.229 16.067 103.416 15.9725 103.416 15.8149H103.385V12.2867C103.385 12.0347 103.26 11.8141 103.041 11.6881L98.5435 9.07344C98.356 8.97893 98.1374 8.97893 97.9812 9.07344L97.1066 9.57748C96.9505 9.67198 96.8255 9.861 96.8255 10.0815V10.8061C96.8255 11.0266 96.9192 11.2471 97.1066 11.3731L103.104 15.9725Z" fill="#19234F"/>
<path fill-rule="evenodd" clip-rule="evenodd" d="M87.2656 15.6572C87.2656 9.38822 92.1695 4.56836 98.2915 4.56836C104.414 4.56836 109.317 9.38822 109.317 15.6572C109.317 21.9262 104.414 26.746 98.2915 26.746C92.1695 26.746 87.2656 21.9262 87.2656 15.6572ZM88.5763 15.6574C88.5763 21.1388 92.8242 25.4231 98.2903 25.4231C103.756 25.4231 108.004 21.1388 108.004 15.6574C108.004 10.176 103.725 5.89165 98.2903 5.89165C92.8554 5.89165 88.5763 10.176 88.5763 15.6574Z" fill="white"/>
<path d="M212.998 13.0266V17.3787H207.056V23.3095H202.704V17.3787H196.773V13.0266H202.673V7.12695H207.025V13.0266H212.998Z" fill="white"/>
</svg>
